<svg width="102" height="112" viewBox="0 0 102 112" fill="none" xmlns="http://www.w3.org/2000/svg">
<g id="Group 1000001835">
<g id="Group 33998">
<path id="Path 5" d="M44.8413 68.228C44.558 68.586 44.4088 68.9921 44.4087 69.4054L44.4336 89.9043C44.4336 89.9043 44.4336 91.7027 46.9007 91.7027H58.414C60.8811 91.7027 60.8811 89.9043 60.8811 89.9043V55.687C60.8807 55.1348 60.8807 55.1348 61.2164 55.687L85.5524 89.9043C86.3748 91.1033 86.786 91.7027 88.0195 91.7027H99.5327C99.5327 91.7027 102 91.7027 102 89.9044V33.5538C102 33.5538 102 31.7554 99.5327 31.7554L88.0195 31.7555C88.0195 31.7555 85.5523 31.7555 85.5523 33.5539V67.0381C85.5523 67.0381 85.552 68.9227 83.9073 67.1243L68.4953 45.5619C68.2258 45.1885 67.8237 44.8745 67.3311 44.6529C66.8385 44.4313 66.2733 44.3101 65.6945 44.302C65.1157 44.2938 64.5445 44.3991 64.0405 44.6066C63.5365 44.8142 63.1182 45.1166 62.8291 45.4822L44.8413 68.228Z" fill="white"/>
<path id="Path 2" d="M37.5785 78.962L2.46724 79.1214C2.46724 79.1214 -7.18814e-10 79.1214 0 77.323L0.000105198 20.9725C0.000105198 19.1741 2.46724 19.1741 2.46724 19.1741H39.4741C39.4741 19.1741 53.4594 19.1741 53.4594 29.3622V40.1556C53.4594 40.1556 53.4594 49.1478 41.1188 49.1478C41.1188 49.1478 53.4594 49.1478 53.4545 58.1399L37.5785 78.962Z" fill="white"/>
<path id="Rectangle 5068" d="M15.6267 28.7551H31.029C34.7856 28.7551 37.8309 31.8004 37.8309 35.557V36.9401C37.8309 40.6966 34.7856 43.742 31.029 43.742H15.6267V28.7551Z" fill="#03989F"/>
<path id="Rectangle 5072" d="M15.6267 54.5344H31.029C34.7856 54.5344 37.8309 57.5797 37.8309 61.3363V62.7194C37.8309 66.4759 34.7856 69.5213 31.029 69.5213H15.6267V54.5344Z" fill="#03989F"/>
<g id="Group 2521">
<path id="path3703" d="M49.1333 0C125.919 43.0096 -0.919922 72.2596 53.1853 111.488C-13.0406 67.6709 106.685 44.1339 49.1333 0Z" fill="#FFDC00"/>
</g>
</g>
</g>
</svg>
